<svg width="38" height="38" viewBox="0 0 38 38" fill="none" xmlns="http://www.w3.org/2000/svg">
<circle cx="19" cy="19" r="19" fill="#ACD1F7"/>
<path d="M12 21.5V17H15L18.5 14V24L15 21.5H12Z" stroke="black"/>
<path d="M26.1464 21.8536C26.3417 22.0488 26.6583 22.0488 26.8536 21.8536C27.0488 21.6583 27.0488 21.3417 26.8536 21.1464L26.5 21.5L26.1464 21.8536ZM22 17L21.6464 17.3536L26.1464 21.8536L26.5 21.5L26.8536 21.1464L22.3536 16.6464L22 17Z" fill="black"/>
<path d="M22.3536 21.8536C22.1583 22.0488 21.8417 22.0488 21.6464 21.8536C21.4512 21.6583 21.4512 21.3417 21.6464 21.1464L22 21.5L22.3536 21.8536ZM26.5 17L26.8536 17.3536L22.3536 21.8536L22 21.5L21.6464 21.1464L26.1464 16.6464L26.5 17Z" fill="black"/>
</svg>
